<svg width="751" height="109" viewBox="0 0 751 109" fill="none" xmlns="http://www.w3.org/2000/svg">
<path d="M68.0656 81.4C68.2189 82.0133 68.2955 82.4733 68.2955 82.78C68.2955 83.7767 67.9505 84.5817 67.2605 85.195C66.5705 85.8083 65.7655 86.115 64.8455 86.115C64.0789 86.115 63.3889 85.9233 62.7755 85.54C62.2389 85.08 61.8172 84.505 61.5105 83.815L52.8855 62.77H15.5105L7.00053 83.815C6.3872 85.3483 5.35221 86.115 3.89554 86.115C2.82221 86.115 2.01721 85.8467 1.48055 85.31C0.943878 84.7733 0.637214 84.045 0.560547 83.125V82.78C0.560547 82.32 0.59887 81.975 0.675537 81.745L31.0355 7.45499C31.6489 5.92166 32.7989 5.15499 34.4855 5.15499C35.2522 5.15499 35.9039 5.38499 36.4405 5.84499C37.0539 6.22833 37.5139 6.76499 37.8205 7.45499L68.0656 81.4ZM50.1255 55.985L34.0255 16.655L18.1555 55.985H50.1255Z" fill="#515151"/>
<path d="M121.664 26.2C122.66 26.2 123.465 26.545 124.079 27.235C124.769 27.8483 125.114 28.6533 125.114 29.65V80.365C125.114 86.4217 123.925 91.5967 121.549 95.89C119.172 100.183 115.875 103.442 111.659 105.665C107.442 107.888 102.689 109 97.3986 109C94.1786 109 91.1503 108.655 88.3136 107.965C85.5536 107.275 83.2536 106.355 81.4136 105.205C79.8036 104.208 78.9986 103.097 78.9986 101.87C78.9986 101.717 79.0753 101.333 79.2286 100.72C79.4586 99.9533 79.842 99.3783 80.3786 98.995C80.9153 98.6117 81.4903 98.42 82.1036 98.42C82.5636 98.42 83.0236 98.535 83.4836 98.765C88.3903 101.448 93.067 102.79 97.5136 102.79C103.877 102.79 108.899 100.797 112.579 96.81C116.335 92.8233 118.214 87.38 118.214 80.48V76.455C116.297 79.675 113.537 82.2817 109.934 84.275C106.33 86.1917 102.42 87.15 98.2036 87.15C91.5336 87.15 86.4736 85.1567 83.0236 81.17C79.5736 77.1833 77.8486 71.7783 77.8486 64.955V29.65C77.8486 28.6533 78.1553 27.8483 78.7686 27.235C79.4586 26.545 80.302 26.2 81.2986 26.2C82.2953 26.2 83.1003 26.545 83.7136 27.235C84.4036 27.8483 84.7486 28.6533 84.7486 29.65V63.92C84.7486 69.44 85.937 73.6183 88.3136 76.455C90.767 79.2917 94.562 80.71 99.6986 80.71C102.842 80.71 105.832 79.9433 108.669 78.41C111.582 76.8 113.882 74.73 115.569 72.2C117.332 69.5933 118.214 66.8333 118.214 63.92V29.65C118.214 28.6533 118.52 27.8483 119.134 27.235C119.824 26.545 120.667 26.2 121.664 26.2Z" fill="#515151"/>
<path d="M195.539 27.235C196.536 27.235 197.341 27.58 197.954 28.27C198.644 28.96 198.989 29.8033 198.989 30.8V82.55C198.989 83.5467 198.644 84.39 197.954 85.08C197.341 85.6933 196.536 86 195.539 86C194.543 86 193.699 85.6933 193.009 85.08C192.396 84.39 192.089 83.5467 192.089 82.55V74.845C190.173 78.295 187.298 81.2083 183.464 83.585C179.631 85.9617 175.453 87.15 170.929 87.15C165.793 87.15 161.154 85.8083 157.014 83.125C152.951 80.4417 149.731 76.7617 147.354 72.085C145.054 67.4083 143.904 62.1567 143.904 56.33C143.904 50.5033 145.093 45.29 147.469 40.69C149.846 36.0133 153.066 32.3717 157.129 29.765C161.269 27.1583 165.831 25.855 170.814 25.855C175.414 25.855 179.631 26.9667 183.464 29.19C187.298 31.4133 190.173 34.3267 192.089 37.93V30.8C192.089 29.8033 192.396 28.96 193.009 28.27C193.699 27.58 194.543 27.235 195.539 27.235ZM171.619 80.71C175.606 80.71 179.171 79.675 182.314 77.605C185.534 75.4583 188.026 72.545 189.789 68.865C191.629 65.1083 192.549 60.93 192.549 56.33C192.549 51.8833 191.629 47.82 189.789 44.14C188.026 40.46 185.534 37.585 182.314 35.515C179.171 33.3683 175.606 32.295 171.619 32.295C167.633 32.295 164.029 33.33 160.809 35.4C157.666 37.47 155.174 40.345 153.334 44.025C151.571 47.6283 150.689 51.73 150.689 56.33C150.689 60.93 151.571 65.1083 153.334 68.865C155.098 72.545 157.551 75.4583 160.694 77.605C163.914 79.675 167.556 80.71 171.619 80.71Z" fill="#515151"/>
<path d="M263.569 79.905C264.259 80.6717 264.604 81.5533 264.604 82.55C264.604 83.5467 264.182 84.39 263.339 85.08C262.572 85.6933 261.844 86 261.154 86C260.157 86 259.314 85.5783 258.624 84.735L233.209 57.825L224.584 65.185V82.55C224.584 83.5467 224.239 84.39 223.549 85.08C222.936 85.6933 222.131 86 221.134 86C220.137 86 219.294 85.6933 218.604 85.08C217.991 84.39 217.684 83.5467 217.684 82.55V4.34999C217.684 3.35332 217.991 2.54832 218.604 1.93499C219.294 1.24499 220.137 0.899994 221.134 0.899994C222.131 0.899994 222.936 1.24499 223.549 1.93499C224.239 2.54832 224.584 3.35332 224.584 4.34999V56.79L257.819 28.155C258.509 27.3883 259.314 27.005 260.234 27.005C261.077 27.005 261.844 27.3883 262.534 28.155C263.224 28.845 263.569 29.6117 263.569 30.455C263.569 31.375 263.147 32.2567 262.304 33.1L238.614 53.225L263.569 79.905Z" fill="#515151"/>
<path d="M330.234 56.56C330.234 62.31 328.969 67.5233 326.439 72.2C323.909 76.8767 320.421 80.5567 315.974 83.24C311.527 85.8467 306.582 87.15 301.139 87.15C295.696 87.15 290.751 85.8467 286.304 83.24C281.857 80.5567 278.369 76.8767 275.839 72.2C273.309 67.5233 272.044 62.31 272.044 56.56C272.044 50.81 273.309 45.5967 275.839 40.92C278.369 36.2433 281.857 32.5633 286.304 29.88C290.751 27.1967 295.696 25.855 301.139 25.855C306.582 25.855 311.527 27.1967 315.974 29.88C320.421 32.5633 323.909 36.2433 326.439 40.92C328.969 45.5967 330.234 50.81 330.234 56.56ZM323.334 56.56C323.334 51.96 322.376 47.82 320.459 44.14C318.542 40.46 315.859 37.585 312.409 35.515C309.036 33.3683 305.279 32.295 301.139 32.295C296.999 32.295 293.242 33.3683 289.869 35.515C286.496 37.585 283.812 40.46 281.819 44.14C279.902 47.82 278.944 51.96 278.944 56.56C278.944 61.0833 279.902 65.185 281.819 68.865C283.812 72.545 286.496 75.4583 289.869 77.605C293.242 79.675 296.999 80.71 301.139 80.71C305.279 80.71 309.036 79.675 312.409 77.605C315.859 75.535 318.542 72.66 320.459 68.98C322.376 65.3 323.334 61.16 323.334 56.56Z" fill="#515151"/>
<path d="M428.808 5.49999C429.805 5.49999 430.61 5.80666 431.223 6.41999C431.913 7.03333 432.258 7.83833 432.258 8.835C432.258 9.83166 431.913 10.6367 431.223 11.25C430.61 11.7867 429.805 12.055 428.808 12.055H405.003V82.55C405.003 83.5467 404.658 84.39 403.968 85.08C403.278 85.6933 402.435 86 401.438 86C400.365 86 399.483 85.6933 398.793 85.08C398.18 84.39 397.873 83.5467 397.873 82.55V12.055H374.068C373.071 12.055 372.228 11.7483 371.538 11.135C370.925 10.5217 370.618 9.71666 370.618 8.71999C370.618 7.79999 370.925 7.03333 371.538 6.41999C372.228 5.80666 373.071 5.49999 374.068 5.49999H428.808Z" fill="#515151"/>
<path d="M481.467 27.235C482.464 27.235 483.269 27.58 483.882 28.27C484.572 28.96 484.917 29.8033 484.917 30.8V82.55C484.917 83.5467 484.572 84.39 483.882 85.08C483.269 85.6933 482.464 86 481.467 86C480.47 86 479.627 85.6933 478.937 85.08C478.324 84.39 478.017 83.5467 478.017 82.55V74.845C476.1 78.295 473.225 81.2083 469.392 83.585C465.559 85.9617 461.381 87.15 456.857 87.15C451.721 87.15 447.082 85.8083 442.942 83.125C438.879 80.4417 435.659 76.7617 433.282 72.085C430.982 67.4083 429.832 62.1567 429.832 56.33C429.832 50.5033 431.02 45.29 433.397 40.69C435.774 36.0133 438.994 32.3717 443.057 29.765C447.197 27.1583 451.759 25.855 456.742 25.855C461.342 25.855 465.559 26.9667 469.392 29.19C473.225 31.4133 476.1 34.3267 478.017 37.93V30.8C478.017 29.8033 478.324 28.96 478.937 28.27C479.627 27.58 480.47 27.235 481.467 27.235ZM457.547 80.71C461.534 80.71 465.099 79.675 468.242 77.605C471.462 75.4583 473.954 72.545 475.717 68.865C477.557 65.1083 478.477 60.93 478.477 56.33C478.477 51.8833 477.557 47.82 475.717 44.14C473.954 40.46 471.462 37.585 468.242 35.515C465.099 33.3683 461.534 32.295 457.547 32.295C453.561 32.295 449.957 33.33 446.737 35.4C443.594 37.47 441.102 40.345 439.262 44.025C437.499 47.6283 436.617 51.73 436.617 56.33C436.617 60.93 437.499 65.1083 439.262 68.865C441.025 72.545 443.479 75.4583 446.622 77.605C449.842 79.675 453.484 80.71 457.547 80.71Z" fill="#515151"/>
<path d="M530.637 25.855C537.767 25.855 542.98 27.9633 546.277 32.18C549.65 36.32 551.337 41.84 551.337 48.74V82.55C551.337 83.5467 550.992 84.39 550.302 85.08C549.612 85.6933 548.807 86 547.887 86C546.89 86 546.047 85.6933 545.357 85.08C544.744 84.39 544.437 83.5467 544.437 82.55V49.085C544.437 44.1017 543.172 40.0767 540.642 37.01C538.189 33.8667 534.355 32.295 529.142 32.295C525.845 32.295 522.702 33.0617 519.712 34.595C516.799 36.1283 514.422 38.1983 512.582 40.805C510.742 43.335 509.822 46.095 509.822 49.085V82.55C509.822 83.5467 509.477 84.39 508.787 85.08C508.174 85.6933 507.368 86 506.372 86C505.375 86 504.532 85.6933 503.842 85.08C503.229 84.39 502.922 83.5467 502.922 82.55V31.03C502.922 30.0333 503.229 29.2283 503.842 28.615C504.532 27.925 505.375 27.58 506.372 27.58C507.368 27.58 508.174 27.925 508.787 28.615C509.477 29.2283 509.822 30.0333 509.822 31.03V37.355C511.892 34.0583 514.844 31.3367 518.677 29.19C522.587 26.9667 526.573 25.855 530.637 25.855Z" fill="#515151"/>
<path d="M617.131 27.235C618.128 27.235 618.933 27.58 619.546 28.27C620.236 28.96 620.581 29.8033 620.581 30.8V82.55C620.581 83.5467 620.236 84.39 619.546 85.08C618.933 85.6933 618.128 86 617.131 86C616.135 86 615.291 85.6933 614.601 85.08C613.988 84.39 613.681 83.5467 613.681 82.55V74.845C611.765 78.295 608.89 81.2083 605.056 83.585C601.223 85.9617 597.045 87.15 592.521 87.15C587.385 87.15 582.746 85.8083 578.606 83.125C574.543 80.4417 571.323 76.7617 568.946 72.085C566.646 67.4083 565.496 62.1567 565.496 56.33C565.496 50.5033 566.685 45.29 569.061 40.69C571.438 36.0133 574.658 32.3717 578.721 29.765C582.861 27.1583 587.423 25.855 592.406 25.855C597.006 25.855 601.223 26.9667 605.056 29.19C608.89 31.4133 611.765 34.3267 613.681 37.93V30.8C613.681 29.8033 613.988 28.96 614.601 28.27C615.291 27.58 616.135 27.235 617.131 27.235ZM593.211 80.71C597.198 80.71 600.763 79.675 603.906 77.605C607.126 75.4583 609.618 72.545 611.381 68.865C613.221 65.1083 614.141 60.93 614.141 56.33C614.141 51.8833 613.221 47.82 611.381 44.14C609.618 40.46 607.126 37.585 603.906 35.515C600.763 33.3683 597.198 32.295 593.211 32.295C589.225 32.295 585.621 33.33 582.401 35.4C579.258 37.47 576.766 40.345 574.926 44.025C573.163 47.6283 572.281 51.73 572.281 56.33C572.281 60.93 573.163 65.1083 574.926 68.865C576.69 72.545 579.143 75.4583 582.286 77.605C585.506 79.675 589.148 80.71 593.211 80.71Z" fill="#515151"/>
<path d="M685.161 79.905C685.851 80.6717 686.196 81.5533 686.196 82.55C686.196 83.5467 685.774 84.39 684.931 85.08C684.164 85.6933 683.436 86 682.746 86C681.749 86 680.906 85.5783 680.216 84.735L654.801 57.825L646.176 65.185V82.55C646.176 83.5467 645.831 84.39 645.141 85.08C644.528 85.6933 643.723 86 642.726 86C641.729 86 640.886 85.6933 640.196 85.08C639.583 84.39 639.276 83.5467 639.276 82.55V4.34999C639.276 3.35332 639.583 2.54832 640.196 1.93499C640.886 1.24499 641.729 0.899994 642.726 0.899994C643.723 0.899994 644.528 1.24499 645.141 1.93499C645.831 2.54832 646.176 3.35332 646.176 4.34999V56.79L679.411 28.155C680.101 27.3883 680.906 27.005 681.826 27.005C682.669 27.005 683.436 27.3883 684.126 28.155C684.816 28.845 685.161 29.6117 685.161 30.455C685.161 31.375 684.739 32.2567 683.896 33.1L660.206 53.225L685.161 79.905Z" fill="#515151"/>
<path d="M747.405 27.235C748.401 27.235 749.206 27.58 749.82 28.27C750.51 28.96 750.855 29.8033 750.855 30.8V82.55C750.855 83.5467 750.51 84.39 749.82 85.08C749.206 85.6933 748.401 86 747.405 86C746.408 86 745.565 85.6933 744.875 85.08C744.261 84.39 743.955 83.5467 743.955 82.55V74.845C742.038 78.295 739.163 81.2083 735.33 83.585C731.496 85.9617 727.318 87.15 722.795 87.15C717.658 87.15 713.02 85.8083 708.88 83.125C704.816 80.4417 701.596 76.7617 699.22 72.085C696.92 67.4083 695.77 62.1567 695.77 56.33C695.77 50.5033 696.958 45.29 699.335 40.69C701.711 36.0133 704.931 32.3717 708.995 29.765C713.135 27.1583 717.696 25.855 722.68 25.855C727.28 25.855 731.496 26.9667 735.33 29.19C739.163 31.4133 742.038 34.3267 743.955 37.93V30.8C743.955 29.8033 744.261 28.96 744.875 28.27C745.565 27.58 746.408 27.235 747.405 27.235ZM723.485 80.71C727.471 80.71 731.036 79.675 734.18 77.605C737.4 75.4583 739.891 72.545 741.655 68.865C743.495 65.1083 744.415 60.93 744.415 56.33C744.415 51.8833 743.495 47.82 741.655 44.14C739.891 40.46 737.4 37.585 734.18 35.515C731.036 33.3683 727.471 32.295 723.485 32.295C719.498 32.295 715.895 33.33 712.675 35.4C709.531 37.47 707.04 40.345 705.2 44.025C703.436 47.6283 702.555 51.73 702.555 56.33C702.555 60.93 703.436 65.1083 705.2 68.865C706.963 72.545 709.416 75.4583 712.56 77.605C715.78 79.675 719.421 80.71 723.485 80.71Z" fill="#515151"/>
</svg>
