<svg width="86" height="124" viewBox="0 0 86 124" fill="none" xmlns="http://www.w3.org/2000/svg">
<path d="M9.23969 53.1679C7.3275 57.9543 5.51982 59.7909 2.3007 60.322C1.43692 60.4645 0.991657 61.5438 1.57911 62.1929C11.3241 72.9604 12.0837 80.4962 3.11141 95.3164C3.03944 95.4353 2.98992 95.5729 2.9737 95.7109C1.52873 108.012 15.9254 117.948 43.3096 123.328C43.4338 123.352 43.5654 123.353 43.6898 123.329C68.4536 118.632 85.4146 107.498 82.5395 95.6579C82.5144 95.5543 82.469 95.4518 82.4115 95.3621C73.3971 81.2811 73.7736 73.6666 84.2791 61.8443C84.8019 61.2559 84.4911 60.3092 83.731 60.1049C80.3265 59.1897 78.2824 57.5312 75.7876 53.028C75.6084 52.7044 75.2674 52.5028 74.8976 52.4943C67.7007 52.3286 63.8017 48.6634 57.3027 40.864C57.1123 40.6354 56.8279 40.5 56.5305 40.5H28.4845C28.1785 40.5 27.8869 40.6435 27.6967 40.8832C21.2586 48.9953 17.3516 52.5352 10.2151 52.5137C9.78739 52.5124 9.39838 52.7707 9.23969 53.1679Z" fill="black"/>
<path d="M15 56C14.1035 60.1181 12.5483 61.7913 6 62.5C18.3669 69.3216 11.467 94.6679 8.5 97.5C13.6063 107.166 19.7629 111.947 43.5 118C64.7226 111.679 72.9245 107.37 77 97.5C73.6196 95.8456 66.3684 70.8792 79.5 62.5C74.5268 62.3223 72.8619 60.6189 71 56C68.855 56.6338 65 56 65 56C61.9094 40.8232 19.1628 42.8249 20.5 56C18.3519 56.6567 17.1481 56.7542 15 56Z" fill="white"/>
<path d="M21.1308 85.852C21.4094 85.2507 22.1721 83.5787 23.4188 80.836C24.6654 78.0933 25.9928 75.1307 27.4008 71.948C27.5474 71.6107 27.6208 71.31 27.6208 71.046C27.6208 70.8553 27.5694 70.716 27.4668 70.628C27.3641 70.5253 27.1661 70.474 26.8728 70.474C26.2861 70.474 25.7874 70.6793 25.3768 71.09C24.9661 71.486 24.6581 71.992 24.4528 72.608C24.2474 73.224 24.1448 73.8473 24.1448 74.478C24.1448 74.6687 24.1594 74.896 24.1888 75.16C23.8074 75.16 23.5141 74.9693 23.3088 74.588C23.1181 74.2067 23.0228 73.796 23.0228 73.356C23.0228 72.74 23.2428 72.146 23.6828 71.574C24.1228 71.002 24.6728 70.54 25.3328 70.188C26.0074 69.836 26.6674 69.66 27.3128 69.66C27.8261 69.66 28.2368 69.7993 28.5448 70.078C28.8674 70.3567 29.1094 70.8553 29.2708 71.574C29.4468 72.2927 29.5348 73.2973 29.5348 74.588C29.5348 75.776 29.4468 77.558 29.2708 79.934C29.1828 81.0633 29.1168 82.1707 29.0728 83.256C29.5714 81.3347 30.4954 79.142 31.8448 76.678C33.2088 74.214 34.3748 72.2707 35.3428 70.848C35.5774 70.496 35.7608 70.2613 35.8928 70.144C36.0394 70.012 36.2228 69.946 36.4428 69.946C36.6481 69.946 36.8828 69.9973 37.1468 70.1C36.7801 70.98 36.4501 72.0067 36.1568 73.18C35.6581 75.116 35.1961 77.3453 34.7708 79.868C34.3601 82.376 34.1548 84.29 34.1548 85.61C34.1548 85.962 34.1694 86.226 34.1988 86.402C34.2281 86.578 34.2794 86.7687 34.3528 86.974L34.4848 87.414C33.9861 87.414 33.6048 87.3333 33.3408 87.172C33.0914 87.0107 32.9154 86.7613 32.8128 86.424C32.7248 86.0867 32.6808 85.5953 32.6808 84.95C32.6808 83.3807 32.8641 81.7087 33.2308 79.934C33.5974 78.1593 34.1474 75.8787 34.8808 73.092C34.2354 73.928 33.5168 75.1307 32.7248 76.7C31.9328 78.2547 31.1921 79.846 30.5028 81.474C29.8281 83.102 29.3221 84.422 28.9848 85.434C28.8234 85.4927 28.7134 85.522 28.6548 85.522C28.2881 85.522 28.0314 85.3093 27.8848 84.884C27.7528 84.444 27.6868 83.762 27.6868 82.838C27.6868 82.0167 27.7454 80.4327 27.8628 78.086C27.9801 75.7687 28.0388 74.236 28.0388 73.488C28.0388 73.0773 28.0241 72.6667 27.9948 72.256C26.9388 74.7053 26.0294 76.876 25.2668 78.768C24.2548 81.2027 23.4994 82.97 23.0008 84.07C22.5021 85.17 22.0474 85.9987 21.6368 86.556C21.2261 87.128 20.8228 87.414 20.4268 87.414L21.1308 85.852ZM39.3545 86.468C38.4892 86.468 37.8218 86.226 37.3525 85.742C36.8978 85.2727 36.6705 84.664 36.6705 83.916C36.6705 83.0507 36.9565 82.1193 37.5285 81.122C38.1005 80.1247 38.8192 79.2887 39.6845 78.614C40.5645 77.9247 41.4225 77.58 42.2585 77.58C43.1678 77.58 43.6225 78.0273 43.6225 78.922C43.6225 79.6407 43.3512 80.3153 42.8085 80.946C42.2658 81.562 41.5692 82.068 40.7185 82.464C39.8678 82.86 39.0172 83.102 38.1665 83.19C38.1078 83.4393 38.0785 83.7033 38.0785 83.982C38.0785 84.51 38.2105 84.95 38.4745 85.302C38.7385 85.654 39.1858 85.83 39.8165 85.83C40.7112 85.83 41.6132 85.456 42.5225 84.708C43.4318 83.96 44.1725 83.036 44.7445 81.936L45.0085 82.134C44.4218 83.4393 43.6078 84.488 42.5665 85.28C41.5252 86.072 40.4545 86.468 39.3545 86.468ZM38.2765 82.772C38.8925 82.552 39.5378 82.244 40.2125 81.848C40.8872 81.452 41.4592 80.99 41.9285 80.462C42.4125 79.9193 42.6545 79.3547 42.6545 78.768C42.6545 78.592 42.6178 78.4673 42.5445 78.394C42.4858 78.306 42.3685 78.262 42.1925 78.262C41.7378 78.262 41.2392 78.4893 40.6965 78.944C40.1685 79.3987 39.6772 79.978 39.2225 80.682C38.7825 81.386 38.4672 82.0827 38.2765 82.772ZM51.4107 85.94C50.912 85.94 50.5307 85.808 50.2667 85.544C50.0027 85.2947 49.8707 84.9573 49.8707 84.532C49.8707 84.3413 49.9 84.1213 49.9587 83.872C50.032 83.608 50.1054 83.3513 50.1787 83.102C50.2667 82.838 50.34 82.5593 50.3987 82.266C50.472 81.9727 50.5087 81.7087 50.5087 81.474C50.5087 80.7553 50.2154 80.396 49.6287 80.396C49.0714 80.396 48.4847 80.6893 47.8687 81.276C47.2674 81.8627 46.7247 82.5153 46.2407 83.234C45.7714 83.9527 45.236 84.818 44.6347 85.83C44.3854 85.83 44.158 85.786 43.9527 85.698C43.7474 85.6247 43.586 85.5073 43.4687 85.346C43.4687 85.2727 43.564 85.0087 43.7547 84.554C44.1214 83.6153 44.422 82.7647 44.6567 82.002C44.8914 81.2247 45.016 80.5353 45.0307 79.934C45.1334 79.8167 45.28 79.714 45.4707 79.626C45.6614 79.5233 45.852 79.472 46.0427 79.472C46.4387 79.472 46.6367 79.6627 46.6367 80.044C46.6367 80.264 46.5707 80.6527 46.4387 81.21C46.3067 81.7527 46.138 82.332 45.9327 82.948C46.6367 81.8627 47.3847 80.946 48.1767 80.198C48.9687 79.45 49.746 79.076 50.5087 79.076C51.0514 79.076 51.4547 79.274 51.7187 79.67C51.9974 80.0513 52.1367 80.5133 52.1367 81.056C52.1367 81.3787 52.0927 81.6867 52.0047 81.98C51.9314 82.2733 51.814 82.6107 51.6527 82.992C51.5207 83.3147 51.418 83.5933 51.3447 83.828C51.2714 84.0627 51.2347 84.2973 51.2347 84.532C51.2347 85.0893 51.4547 85.368 51.8947 85.368C52.3934 85.368 52.9067 85.038 53.4347 84.378C53.9774 83.718 54.4907 82.904 54.9747 81.936L55.2167 82.222C54.1607 84.7007 52.892 85.94 51.4107 85.94ZM56.2027 86.16C55.7187 86.16 55.3227 85.94 55.0147 85.5C54.7067 85.0747 54.5527 84.554 54.5527 83.938C54.5527 83.3953 54.6627 82.728 54.8827 81.936C55.1174 81.1293 55.3887 80.4327 55.6967 79.846C56.0194 79.2447 56.2834 78.944 56.4887 78.944C56.5767 78.944 56.7014 78.988 56.8627 79.076C57.0387 79.164 57.1854 79.2667 57.3027 79.384C56.9947 79.868 56.6721 80.5647 56.3347 81.474C55.9974 82.3687 55.8287 83.146 55.8287 83.806C55.8287 84.1433 55.8801 84.4733 55.9827 84.796C56.1001 85.1187 56.3127 85.28 56.6207 85.28C57.1341 85.28 57.6914 84.8107 58.2927 83.872C58.9087 82.9187 59.5687 81.716 60.2727 80.264L60.6247 79.538C61.3287 79.67 61.6807 79.8607 61.6807 80.11C61.6807 80.1393 61.6441 80.242 61.5707 80.418C61.5121 80.5793 61.4534 80.726 61.3947 80.858C61.0574 81.606 60.7714 82.31 60.5367 82.97C60.3167 83.6153 60.2067 84.1653 60.2067 84.62C60.2067 85.2067 60.4487 85.5 60.9327 85.5C61.2554 85.5 61.6367 85.3607 62.0767 85.082C62.5167 84.7887 62.9641 84.3707 63.4187 83.828C63.8734 83.2853 64.2694 82.6547 64.6067 81.936L64.8927 82.134C64.5847 82.9113 64.1814 83.608 63.6827 84.224C63.1987 84.8253 62.6707 85.2947 62.0987 85.632C61.5267 85.984 60.9841 86.16 60.4707 86.16C59.4441 86.16 58.9307 85.6173 58.9307 84.532C58.9307 84.2387 58.9821 83.872 59.0847 83.432C58.6154 84.268 58.1461 84.9353 57.6767 85.434C57.2074 85.918 56.7161 86.16 56.2027 86.16Z" fill="black"/>
<path d="M10 54L43 2L75 54" stroke="black" stroke-width="1.5"/>
</svg>
