<svg width="205" height="57" viewBox="0 0 205 57" fill="none" xmlns="http://www.w3.org/2000/svg">
<path d="M99.9019 39.5491C114.462 33.7784 109.449 16.7172 147.638 7.43388L150.025 4.17218C113.507 5.4267 104.676 36.8078 97.2764 35.0329C92.2235 32.4635 89.9038 31.6838 87.4904 32.0221C82.2394 32.0221 75.5563 40.8036 78.6592 32.5239C72.9308 32.5239 73.6469 39.5491 78.6592 39.5491C82.2394 40.5527 82.0007 36.9086 87.4904 35.5347C92.5028 34.2802 95.6056 39.5491 99.9019 39.5491Z" fill="black" stroke="black"/>
<path d="M15.8858 56.1085C25.1944 57.6139 37.3672 53.0977 52.4041 45.8216L54.3136 39.8C43.3342 39.8 37.3672 32.5239 37.3672 24.9969C37.958 13.2885 41.9021 8.43752 52.6428 8.18656C65.5317 9.69202 67.6798 23.7424 57.1778 27.0041C50.972 30.2658 44.995 25.3013 49.54 18.9753C46.7334 18.1523 43.006 24.7998 46.6758 28.0077C48.279 29.7422 49.9485 32.4719 56.7004 30.7676C64.6172 28.7947 66.9637 24.9969 67.9185 17.219C67.8674 8.25105 58.1325 4.17224 50.972 4.67402C44.5276 4.67402 34.503 8.18656 32.8322 20.2298C31.8775 34.2802 37.6059 41.0545 46.6758 43.3126C31.3425 52.4814 22.0915 55.0246 10.3961 51.0905C4.42904 49.0833 1.08749 35.0329 8.96402 32.7748C16.6018 32.273 18.1216 41.2856 10.3961 41.7713C15.8858 44.5671 19.5941 40.3191 17.5566 35.0329C15.5256 29.7638 10.9036 29.7639 8.9827 29.764H8.96402C6.65754 30.0164 1.86656 30.8565 1.08749 39.2982C0.272666 47.968 5.14509 53.5995 15.8858 56.1085Z" fill="black" stroke="black"/>
<path d="M174.848 39.8C185.827 39.2982 191.899 34.4028 204.445 20.2298V14.4591C188.419 30.7818 181.054 39.2982 168.881 36.7892C161.482 34.782 158.379 32.273 152.412 23.7424C148.116 15.4627 151.457 3.9213 159.095 3.9213C171.984 5.42671 164.346 28.7604 157.663 13.7064C154.083 26.0005 169.836 22.7388 168.881 14.4591C168.881 3.41951 163.869 -0.343999 155.037 1.4123C148.758 3.16642 146.156 8.20265 142.149 19.9789C135.346 35.68 130.453 36.7892 124.963 36.7892C116.848 36.7892 115.894 25.5893 118.996 22.237C127.589 12.9537 131.408 30.0149 120.19 27.0041C125.441 38.5455 138.091 16.7172 123.054 16.7172C111.12 18.4735 109.927 41.0545 127.112 39.2982C135.483 38.4426 139.881 35.0474 146.922 17.4699C146.922 21.9861 153.844 40.3018 174.848 39.8Z" fill="black" stroke="black"/>
<rect x="52.4041" y="39.5491" width="152.279" height="6.5234" fill="black"/>
<path d="M94.8669 48.0797C94.8669 48.8807 94.1615 49.5869 93.2188 49.5869C92.276 49.5869 91.5706 48.8807 91.5706 48.0797C91.5706 47.2787 92.276 46.5725 93.2188 46.5725C94.1615 46.5725 94.8669 47.2787 94.8669 48.0797Z" stroke="black"/>
<path d="M92.9801 45.5707C92.9801 46.1729 93.2983 45.8216 93.4575 45.5707" stroke="black" stroke-width="3"/>
</svg>
