<svg width="131" height="32" viewBox="0 0 131 32" fill="none" xmlns="http://www.w3.org/2000/svg">
<g clip-path="url(#clip0)">
<rect x="0.5" y="0.5" width="130" height="31" fill="white" stroke="#373737"/>
<circle cx="116" cy="17" r="14.5" fill="#47A6DC" stroke="#373737"/>
<line x1="74.4058" y1="0.998383" x2="74.4058" y2="32.0003" stroke="#373737"/>
<path d="M73.6099 16.1974L101.589 0.779839V31.6149L73.6099 16.1974Z" fill="#373737"/>
<path d="M73.9952 16.8658C73.9952 24.6331 67.6845 30.9316 59.8976 30.9316C52.1107 30.9316 45.8 24.6331 45.8 16.8658C45.8 9.09848 52.1107 2.79999 59.8976 2.79999C67.6845 2.79999 73.9952 9.09848 73.9952 16.8658Z" fill="#FFF7AF" stroke="#373737"/>
<line x1="74.4099" y1="14.5789" x2="74.4099" y2="30.7631" stroke="#373737"/>
<path d="M37 22.1316L21.4115 0.282907L52.5885 0.282907L37 22.1316Z" fill="#373737"/>
<path d="M36.9999 31.8421L36.9268 9.45395" stroke="#373737"/>
<line x1="28.6951" y1="0.0131531" x2="28.6951" y2="32.3816" stroke="#373737"/>
<path d="M28.6951 16.8658C28.6951 24.6331 22.3845 30.9316 14.5976 30.9316C6.81067 30.9316 0.5 24.6331 0.5 16.8658C0.5 9.09848 6.81067 2.79999 14.5976 2.79999C22.3845 2.79999 28.6951 9.09848 28.6951 16.8658Z" fill="#FA9797" stroke="#373737"/>
</g>
<defs>
<clipPath id="clip0">
<rect width="131" height="32" fill="white"/>
</clipPath>
</defs>
</svg>
